Coordinates
version=1
nRows=8
nColumns=40
inDegrees=yes

Units are S.I. units (second, meters, Newtons, ...)
If the header above contains a line with 'inDegrees', this indicates whether rotational values are in degrees (yes) or radians (no).

endheader
time	pelvis_tilt	pelvis_list	pelvis_rotation	pelvis_tx	pelvis_ty	pelvis_tz	hip_flexion_r	hip_adduction_r	hip_rotation_r	knee_angle_r	knee_angle_r_beta	ankle_angle_r	subtalar_angle_r	mtp_angle_r	hip_flexion_l	hip_adduction_l	hip_rotation_l	knee_angle_l	knee_angle_l_beta	ankle_angle_l	subtalar_angle_l	mtp_angle_l	lumbar_extension	lumbar_bending	lumbar_rotation	arm_flex_r	arm_add_r	arm_rot_r	elbow_flex_r	pro_sup_r	wrist_flex_r	wrist_dev_r	arm_flex_l	arm_add_l	arm_rot_l	elbow_flex_l	pro_sup_l	wrist_flex_l	wrist_dev_l
      8.85999999999999943157	      7.77020260364684656196	     -4.22670938632290127401	    179.61472809749207613095	      0.32115901074538605320	      0.89437976459858259393	     -0.62344314260309108278	     35.18731583792678208056	    -10.24161367518073362248	     -2.36234135786269483503	     27.79436395577850760219	      0.48510316452597057602	      1.84098476271444089214	      0.00000000000000000000	      0.00000000000000000000	     33.35815578481629017915	     -7.37519166254743208100	    -17.51555599132581164667	     29.19808711727156236293	      0.50960275548052846872	     -0.80864197239589630239	      0.00000000000000000000	      0.00000000000000000000	    -40.76376575377204147799	     -3.06076988522713966390	     -1.80122130412689473999	     38.32543333661294582271	     -1.19749334606129109737	     31.03187860510931628255	      2.76686114516622838622	      8.73417315136564376132	      0.00000000000000000000	      0.00000000000000000000	     44.50803836035699134754	     -8.55388393035640071105	     84.10961692317854954126	      5.28262947506593150138	     85.03947300425754463049	      0.00000000000000000000	      0.00000000000000000000
      8.86500000000000021316	      7.68744451465952849389	     -4.27565966200213232185	    179.58859321668793995741	      0.32020520144697539600	      0.89489693107692047658	     -0.62342591433852878602	     35.00327726052008614488	    -10.29904128844154875821	     -2.34340098926587447892	     27.74816775220157083481	      0.48429688867163145360	      1.83951629028823759882	      0.00000000000000000000	      0.00000000000000000000	     33.13685523285258227588	     -7.34392022486029016903	    -17.72843480760518630746	     29.12731548459221286862	      0.50836755747326178856	     -0.80697927299218186192	      0.00000000000000000000	      0.00000000000000000000	    -40.33156656496029768277	     -3.12266141424245491365	     -1.75567133365353833518	     37.93350695107274361817	     -1.20654154629715559821	     31.07434449765590400716	      2.67852564161183526181	      8.71273250052541570199	      0.00000000000000000000	      0.00000000000000000000	     44.08757480582826815407	     -8.54003772581128117736	     84.10862627929847690211	      5.31989998464466484762	     85.04401854180895270474	      0.00000000000000000000	      0.00000000000000000000
      8.86999999999999921840	      7.53291992433466095491	     -4.29649758584694385632	    179.58749509545876321681	      0.31928145114257594495	      0.89547353470948165555	     -0.62328919660512394074	     34.75064167263757042292	    -10.39032434619747213844	     -2.49534950511970698983	     27.73593834829575754952	      0.48408344530791874716	      1.84187998141128850271	      0.00000000000000000000	      0.00000000000000000000	     32.82568348855072315473	     -7.27638613628601671479	    -17.74662893271056773870	     28.99910137434865475825	      0.50612979910199673572	     -0.77506387124760378615	      0.00000000000000000000	      0.00000000000000000000	    -39.96968741711887673773	     -3.13300048774764938742	     -1.72300881489275492520	     37.55689571119280856237	     -1.25320315064187548515	     31.18936411276454734320	      2.64857261610183281064	      8.69322245673012083955	      0.00000000000000000000	      0.00000000000000000000	     43.68782620123900528597	     -8.51734269967281143465	     84.09849597847740199086	      5.34116139325656735792	     85.03875529971969626786	      0.00000000000000000000	      0.00000000000000000000
      8.87500000000000000000	      7.14989691753296785492	     -4.44243727443426195123	    179.58896337078149940680	      0.31806697701870778605	      0.89676377462915435324	     -0.62309035771624954325	     34.14961726014576726129	    -10.62138784153696846602	     -2.68467270607594921117	     27.55930370060868028759	      0.48100058913267906835	      1.83938364060508385833	      0.00000000000000000000	      0.00000000000000000000	     32.05163797804334535613	     -6.99967127170639358269	    -17.84545649004778056224	     28.45715847642719609212	      0.49667111117546774990	     -0.83086894258196974938	      0.00000000000000000000	      0.00000000000000000000	    -39.88541894790379416236	     -3.23921211222267668717	     -1.84140205115542388015	     36.98839217783810084939	     -1.48246655855407416524	     32.93195630464511225455	      2.77525793661228137310	      8.66925725581449846402	      0.00000000000000000000	      0.00000000000000000000	     43.29584997501731891134	     -8.50115072636413415808	     83.94832519295279382732	      5.27692436774772666297	     84.91851464290230921961	      0.00000000000000000000	      0.00000000000000000000
      8.88000000000000078160	      7.08769863879247807859	     -4.45522133502467720945	    179.57344729232883651093	      0.31717043985205650714	      0.89713956928436378035	     -0.62305566657511501916	     34.01868063108648954085	    -10.67635359295106134425	     -2.78379254508301610116	     27.57262577000778236425	      0.48123310310687256175	      1.86610668015211134119	      0.00000000000000000000	      0.00000000000000000000	     31.88527026095572125541	     -6.98186438757538319066	    -17.86934419420362374353	     28.42809140971057857428	      0.49616379515736591665	     -0.77783516909549355045	      0.00000000000000000000	      0.00000000000000000000	    -39.42072104972731949601	     -3.26815226175455419977	     -1.78905029976747620424	     36.59524688306633777302	     -1.50067004239176071678	     33.00275591271898179002	      2.73218220023256419537	      8.66092792620200313536	      0.00000000000000000000	      0.00000000000000000000	     42.90520783855878050872	     -8.51565122863726386981	     83.97383440299606149892	      5.32726926703734271484	     84.93810913556642105959	      0.00000000000000000000	      0.00000000000000000000
      8.88499999999999978684	      6.97555732547493523299	     -4.46011498358967806155	    179.56861767613744973460	      0.31630599958117611159	      0.89754051606213680614	     -0.62293323779127418582	     33.82242183741338692471	    -10.73729614784603647593	     -2.92556350591238434333	     27.57735467023362474492	      0.48131563798581183944	      1.92601694324692296334	      0.00000000000000000000	      0.00000000000000000000	     31.63803179170274049170	     -6.92131946545671095095	    -17.83365464610134765167	     28.32978069471117521516	      0.49444794949063652911	     -0.67671991222554517265	      0.00000000000000000000	      0.00000000000000000000	    -38.99896525527388035925	     -3.27541241433998564503	     -1.76214345943873218481	     36.20506528186764683142	     -1.54864184856296449588	     33.09302131411778447045	      2.72489501939475387005	      8.65822026123954735510	      0.00000000000000000000	      0.00000000000000000000	     42.50785422196783969184	     -8.50463801535823549216	     84.00030293184892116187	      5.37550930816326921757	     84.95041912123716087990	      0.00000000000000000000	      0.00000000000000000000
      8.89000000000000056843	      6.88081890363939319144	     -4.48480631601868573455	    179.55400696593693510295	      0.31535275495891867958	      0.89797877542410564633	     -0.62297991540148867085	     33.64298656630267458922	    -10.81331356669311638541	     -3.06148629476245526249	     27.57384592368397235873	      0.48125439880590242803	      1.97257175681309315785	      0.00000000000000000000	      0.00000000000000000000	     31.38946336199439812731	     -6.88573324869446778962	    -17.84659999622094161964	     28.21813441175561010255	      0.49249935425544871803	     -0.59785587660145034228	      0.00000000000000000000	      0.00000000000000000000	    -38.57243661345165008925	     -3.32858429920945697589	     -1.75015560140446235771	     35.80999327169601542664	     -1.57707538984902995161	     33.16564554612149606783	      2.72253875776386999874	      8.65789158226442623345	      0.00000000000000000000	      0.00000000000000000000	     42.11150260410268941769	     -8.53296407622997854503	     84.03385256768039823783	      5.39079526472382308810	     84.96094328713338938996	      0.00000000000000000000	      0.00000000000000000000
      8.89499999999999957367	      6.53572082042220081632	     -4.62556758040329629722	    179.56141235763271879478	      0.31415754160915254634	      0.89897970623909440047	     -0.62276650730898208685	     33.16328216452863131281	    -11.07052500282811990928	     -3.45429052216050891388	     27.56279093667395230227	      0.48106145288381235714	      2.07017765194518865712	      0.00000000000000000000	      0.00000000000000000000	     30.70411348157360009736	     -6.60075609429945941997	    -17.79638362053621136738	     27.76606627006306027283	      0.48460927673954146133	     -0.51905063584553934319	      0.00000000000000000000	      0.00000000000000000000	    -38.41200888656447887115	     -3.42424384976296325434	     -1.91262544440267867607	     35.26505220310770738479	     -1.77747028069521406657	     34.63934247165084201470	      2.89613782572712841201	      8.79982862624875572521	      0.00000000000000000000	      0.00000000000000000000	     41.70226165063088075158	     -8.58200785278594224792	     84.22010945003466986236	      5.37507077289077273008	     84.92191831197702356349	      0.00000000000000000000	      0.00000000000000000000
